# Blender 3.4.1
# www.blender.org
mtllib kart.mtl
o Cube
v -0.233869 0.062500 0.719971
v -0.233869 0.170608 0.719971
v -0.233869 0.481664 0.215366
v 0.233869 0.062500 0.719971
v 0.233869 0.170608 0.719971
v 0.233869 0.481664 0.215366
v -0.233869 0.062500 -0.476804
v 0.233869 0.062500 -0.476804
v 0.435303 0.307492 -0.336200
v 0.435303 0.215107 -0.428585
v 0.435303 0.307492 -0.205548
v 0.435303 0.215107 -0.113163
v 0.435303 0.084454 -0.113163
v 0.435303 -0.007931 -0.205548
v 0.435303 -0.007931 -0.336200
v 0.435303 0.084454 -0.428586
v -0.435303 0.215107 -0.428585
v -0.435303 0.307492 -0.205548
v -0.435303 0.215107 -0.113163
v -0.435303 0.084454 -0.113163
v 0.349121 0.204979 0.335100
v 0.349121 0.142683 0.272804
v 0.349121 0.204979 0.423200
v 0.349121 0.142683 0.485496
v 0.349121 0.054583 0.485496
v 0.349121 -0.007713 0.423200
v 0.349121 -0.007713 0.335100
v 0.349121 0.054583 0.272804
v -0.349121 0.142683 0.272804
v -0.349121 0.142683 0.485496
v -0.349121 0.054583 0.485496
v -0.349121 -0.007713 0.423200
v -0.349121 -0.007713 0.335100
v -0.349121 0.054583 0.272804
v -0.435303 0.307492 -0.336200
v -0.435303 -0.007931 -0.205548
v -0.435303 -0.007931 -0.336200
v -0.435303 0.084454 -0.428586
v -0.349121 0.204979 0.335100
v -0.349121 0.204979 0.423200
v -0.233869 0.340820 0.215366
v 0.233869 0.340820 0.215366
v 0.233869 0.340820 -0.476804
v -0.233869 0.340820 -0.476804
v 0.233869 0.062500 0.215366
v -0.233869 0.062500 0.215366
vn -0.0000 -0.0000 -1.0000
vn 1.0000 -0.0000 -0.0000
vn -0.0000 -0.0000 1.0000
vn -0.0000 -1.0000 -0.0000
vn -0.0000 0.8513 0.5247
vn -0.0000 1.0000 -0.0000
vn -1.0000 -0.0000 -0.0000
vn -0.0000 -0.7071 -0.7071
vn -0.0000 -0.7071 0.7071
vn -0.0000 0.7071 0.7071
vn -0.0000 0.7071 -0.7071
vt -1.677157 0.280911
vt -0.251918 0.280911
vt -0.251918 -1.677157
vt -0.251918 0.669406
vt -0.251918 -1.677157
vt -1.677157 0.669406
vt 0.136173 1.787203
vt -0.251918 1.787203
vt -0.251918 0.136173
vt 1.428926 0.280911
vt -1.677157 0.280911
vt 1.428926 -1.677157
vt 1.428926 0.669406
vt 1.428926 -1.677157
vt -1.677157 0.669406
vt 0.136173 1.787203
vt 1.428926 0.136173
vt 1.428926 1.787203
vt -0.251918 0.280911
vt -0.251918 2.623529
vt 2.623529 0.280911
vt 1.428926 0.280911
vt 2.623529 0.280911
vt 1.428926 2.623529
vt 2.152793 2.118260
vt 2.118260 1.161306
vt 2.152793 1.161306
vt 2.450253 0.829313
vt 2.152793 0.829313
vt 1.648753 1.161306
vt 2.152793 1.648753
vt 2.152793 0.829313
vt 2.152793 1.316760
vt 1.316760 0.829313
vt 2.152793 1.316761
vt 1.316761 0.359805
vt 2.152793 0.359805
vt 1.648753 0.027813
vt 2.152793 1.648753
vt 2.152793 0.027814
vt 2.118261 0.027814
vt 2.152793 2.118261
vt 2.450253 0.359806
vt 2.152793 0.359806
vt 2.450253 0.829313
vt -0.975784 0.829313
vt 1.648753 1.161306
vt -0.975785 1.648753
vt 1.316760 0.829313
vt -0.975784 0.829313
vt -0.975784 1.316760
vt 1.316761 0.359805
vt -0.975784 0.359805
vt -0.975784 1.316761
vt -0.294100 0.792918
vt 1.843093 -0.294100
vt 1.843093 -0.070235
vt -0.070235 0.569053
vt 1.843093 0.569053
vt -0.610692 0.792918
vt 1.843093 -0.610692
vt 1.843093 0.569053
vt -0.834556 0.569053
vt 1.843093 -0.834556
vt -0.834556 0.252461
vt 1.843093 -0.834556
vt 1.843093 0.252461
vt -0.610691 0.028597
vt 1.843093 -0.610691
vt 1.843093 0.028598
vt -0.294100 0.028598
vt 1.843093 -0.294100
vt -0.070235 0.252462
vt 1.843093 0.252462
vt -0.070235 0.569053
vt -0.666084 -0.070235
vt -0.666084 0.569053
vt -0.834556 0.569053
vt -0.666084 0.569053
vt -0.666084 -0.834556
vt -0.834556 0.252461
vt -0.666084 0.252461
vt -0.666084 -0.834556
vt -0.610691 0.028597
vt -0.666084 -0.610691
vt -0.294100 0.028598
vt -0.666084 0.028598
vt -0.666084 -0.294100
vt -0.070235 0.252462
vt -0.666084 0.252462
vt 2.118260 1.161306
vt -0.975785 2.118260
vt -0.975785 1.161306
vt 1.648753 0.027813
vt -0.975784 1.648753
vt 2.118261 0.027814
vt -0.975784 0.027814
vt -0.975784 2.118261
vt 2.450253 0.359806
vt -0.975784 0.359806
vt -0.294100 0.792918
vt -0.666084 -0.294100
vt -0.610692 0.792918
vt -0.666084 -0.610692
vt -0.251918 1.281072
vt -0.251918 0.136173
vt 0.136173 1.281072
vt 1.428926 1.281072
vt 1.428926 0.136173
vt 0.136173 1.281072
vt 1.428926 1.281072
vt 1.428926 2.623529
vt 2.623529 1.281072
vt -0.251918 1.281072
vt -0.251918 2.623529
vt 2.623529 1.281072
vt 0.136173 0.280911
vt 1.428926 0.136173
vt -0.251918 0.136173
vt 0.136173 0.280911
s 0
f 3/8/1 42/108/1 41/105/1
f 42/110/2 6/16/2 5/15/2
f 5/13/3 1/2/3 4/10/3
f 45/118/4 1/3/4 46/119/4
f 3/9/5 5/14/5 6/17/5
f 44/114/1 8/22/1 7/19/1
f 42/109/6 44/115/6 41/106/6
f 2/6/7 46/120/7 1/1/7
f 19/50/3 13/37/3 12/32/3
f 35/92/6 11/31/6 9/25/6
f 37/97/8 16/44/8 15/40/8
f 36/95/4 15/42/4 14/39/4
f 20/54/9 14/39/9 13/35/9
f 11/31/10 19/51/10 12/33/10
f 17/46/11 9/27/11 10/29/11
f 38/100/1 10/29/1 16/44/1
f 24/63/2 25/65/2 26/68/2
f 30/79/3 25/67/3 24/62/3
f 37/96/7 36/94/7 20/52/7
f 18/47/7 35/91/7 17/45/7
f 20/52/7 19/49/7 18/47/7
f 14/38/2 16/43/2 9/26/2
f 17/45/7 37/96/7 20/52/7
f 11/30/2 12/34/2 14/38/2
f 21/55/2 23/60/2 24/63/2
f 39/102/6 23/61/6 21/56/6
f 33/87/8 28/74/8 27/70/8
f 32/85/4 27/72/4 26/69/4
f 31/83/9 26/69/9 25/66/9
f 40/104/10 24/64/10 23/61/10
f 29/76/11 21/56/11 22/57/11
f 34/90/1 22/59/1 28/74/1
f 9/26/2 11/30/2 14/38/2
f 12/34/2 13/36/2 14/38/2
f 27/71/2 28/73/2 21/55/2
f 26/68/2 27/71/2 21/55/2
f 21/55/2 24/63/2 26/68/2
f 28/73/2 22/58/2 21/55/2
f 14/38/2 15/41/2 16/43/2
f 16/43/2 10/28/2 9/26/2
f 20/52/7 18/47/7 17/45/7
f 31/81/7 30/78/7 40/103/7
f 33/86/7 32/84/7 31/81/7
f 40/103/7 39/101/7 29/75/7
f 29/75/7 33/86/7 40/103/7
f 33/86/7 31/81/7 40/103/7
f 17/45/7 38/99/7 37/96/7
f 29/75/7 34/89/7 33/86/7
f 45/117/2 5/15/2 4/11/2
f 8/23/2 42/110/2 45/117/2
f 8/24/4 46/119/4 7/20/4
f 2/6/7 3/7/7 41/107/7
f 46/120/7 44/116/7 7/21/7
f 3/8/1 6/18/1 42/108/1
f 5/13/3 2/4/3 1/2/3
f 45/118/4 4/12/4 1/3/4
f 3/9/5 2/5/5 5/14/5
f 44/114/1 43/111/1 8/22/1
f 42/109/6 43/112/6 44/115/6
f 2/6/7 41/107/7 46/120/7
f 19/50/3 20/53/3 13/37/3
f 35/92/6 18/48/6 11/31/6
f 37/97/8 38/100/8 16/44/8
f 36/95/4 37/98/4 15/42/4
f 20/54/9 36/95/9 14/39/9
f 11/31/10 18/48/10 19/51/10
f 17/46/11 35/93/11 9/27/11
f 38/100/1 17/46/1 10/29/1
f 30/79/3 31/82/3 25/67/3
f 39/102/6 40/104/6 23/61/6
f 33/87/8 34/90/8 28/74/8
f 32/85/4 33/88/4 27/72/4
f 31/83/9 32/85/9 26/69/9
f 40/104/10 30/80/10 24/64/10
f 29/76/11 39/102/11 21/56/11
f 34/90/1 29/77/1 22/59/1
f 45/117/2 42/110/2 5/15/2
f 8/23/2 43/113/2 42/110/2
f 8/24/4 45/118/4 46/119/4
f 46/120/7 41/107/7 44/116/7
